<svg width="235" height="56" viewBox="0 0 235 56" fill="none" xmlns="http://www.w3.org/2000/svg">
<path d="M19.4621 53.9029C7.08421 53.5185 5.68294 45.8312 6.53927 39.4507C6.77282 37.8364 6.38357 34.9921 3.65888 34.8383C1.40127 34.6846 0 36.6833 0 39.0663C0 48.8293 9.18612 55.2866 19.4621 55.2866C30.9837 55.2866 37.1337 48.2143 37.2116 40.5269C37.2894 32.2246 32.852 26.2285 19.4621 22.9998C9.26396 20.5399 5.29369 16.4656 5.138 12.3144C4.90445 6.62579 10.5095 0.860287 19.4621 1.3984C29.7381 2.01339 30.5944 9.00886 30.7501 14.6975C30.7501 16.0812 31.2951 17.6187 33.3191 17.6187C35.5767 17.6187 35.966 15.7737 35.966 14.6975V0.706538H33.3191V7.85576C32.1514 4.47333 27.9476 0.245299 19.4621 0.014682C8.09624 -0.369689 1.71267 6.85641 1.63482 14.2363C1.55697 20.8474 6.15003 26.1516 19.4621 29.3803C31.0615 32.2246 33.7084 36.9908 33.6305 41.6032C33.5527 47.6762 28.1811 54.2104 19.4621 53.9029Z" fill="#0F0F0F"/>
<path d="M83.1482 4.78083C83.1482 2.62837 83.5375 1.93651 85.2501 1.93651H87.2742V0.629665H73.7286V1.93651H75.5969C77.7767 1.93651 77.621 4.47333 77.621 4.78083V26.9204H53.7215V4.62708C53.7215 2.47463 54.1108 1.93651 55.8234 1.93651H57.8475V0.629665H44.3018V1.93651H46.1702C48.35 1.93651 48.1943 4.31959 48.1943 4.62708V50.3667C48.1943 51.3661 48.1943 53.211 46.7151 53.211H44.3797V54.3641H57.8475V53.1342H55.6677C54.1886 53.1342 53.7215 51.3661 53.7215 50.3667V28.3809H77.621V50.3667C77.621 51.3661 77.7767 53.211 76.2976 53.211H73.6507V54.441H86.9628V53.211H84.783C83.3039 53.211 83.1482 51.3661 83.1482 50.3667V4.78083Z" fill="#0F0F0F"/>
<path d="M97.4596 4.62708V50.2899C97.4596 51.2892 97.3039 53.1342 95.8248 53.1342H93.4893V54.441H106.957V53.1342H104.777C103.298 53.1342 102.987 51.2892 102.987 50.2899V4.62708C102.987 2.47463 103.376 1.93651 105.089 1.93651H106.957V0.706538H93.5671V1.93651H95.4355C97.6153 1.93651 97.4596 4.31959 97.4596 4.62708Z" fill="#0F0F0F"/>
<path d="M116.449 53.1342H113.179V54.441H121.12V53.1342H118.24V5.85705L149.613 54.441H155.14V1.93651H158.098V0.706538H150.313V1.93651H153.427V50.0592L125.48 6.93328C122.599 2.47463 121.431 0.629665 117.773 0.629665C115.048 0.629665 116.138 0.629665 113.179 0.629665V1.93651H116.449V53.1342Z" fill="#0F0F0F"/>
<path d="M172.78 1.85964H188.817C192.009 1.85964 193.41 3.39711 193.41 9.4701C193.41 11.3151 195.668 12.3144 196.836 11.93L196.368 0.629665H163.127V1.85964H167.253V53.1342H163.127V54.441L197.458 54.3641L198.003 43.4481C196.836 43.0638 194.578 44.0631 194.578 45.8312C194.578 51.5967 193.177 53.1342 189.985 53.1342H172.78V27.9966H184.847C187.027 27.9966 187.104 30.0722 187.572 33.839H188.895V20.6936H187.572C187.104 26.3054 185.47 26.3822 184.847 26.3822H172.78V1.85964Z" fill="#0F0F0F"/>
<path fill-rule="evenodd" clip-rule="evenodd" d="M223.089 33.4277C229.12 33.4343 234.006 38.3248 234.006 44.3565C234.006 50.3923 229.113 55.2852 223.077 55.2852C217.041 55.2852 212.148 50.3923 212.148 44.3565C212.148 38.3248 217.035 33.4344 223.065 33.4277C223.073 33.4277 223.081 33.4277 223.089 33.4277ZM218.696 35.4698C215.574 37.0117 213.382 40.1503 213.186 43.8189C214.759 43.7935 216.24 43.386 217.538 42.6851C217.606 42.7933 217.699 42.9348 217.822 43.1008C217.952 43.2757 218.067 43.4141 218.155 43.5142C217.563 43.8445 216.936 44.1194 216.281 44.3318C219.482 45.3699 222.012 47.8997 223.049 51.1012C224.088 47.8999 226.617 45.3705 229.819 44.3327C226.617 43.2944 224.087 40.7642 223.05 37.5621C222.424 39.4919 221.257 41.1776 219.727 42.4397C219.951 42.668 220.199 42.8738 220.468 43.0533C221.24 43.5695 223.077 43.8449 223.077 43.8449C223.077 43.8449 225.314 44.1804 226.255 44.8089C226.342 44.8672 226.428 44.9276 226.511 44.9903C226.444 45.036 226.37 45.0882 226.29 45.1471C225.895 45.4399 225.686 45.6586 225.686 45.6586L225.686 45.6591C224.914 45.1433 223.077 44.868 223.077 44.868C223.077 44.868 220.84 44.5326 219.899 43.904C218.959 43.2755 218.225 42.3821 217.792 41.3369C217.36 40.2917 217.246 39.1415 217.467 38.0319C217.655 37.0855 218.079 36.2048 218.696 35.4698ZM219.093 41.6359C221.157 39.9255 222.486 37.3597 222.536 34.4821C222.411 34.4967 222.285 34.5163 222.161 34.5411C221.25 34.7223 220.413 35.1697 219.756 35.8266C219.099 36.4835 218.652 37.3204 218.47 38.2315C218.289 39.1427 218.382 40.0871 218.738 40.9454C218.837 41.186 218.956 41.4169 219.093 41.6359ZM223.563 34.4761C223.65 39.6183 227.818 43.7667 232.969 43.8205C232.773 40.1512 230.58 37.0119 227.458 35.4698C227.592 35.629 227.717 35.7959 227.833 35.9699C228.367 36.7684 228.689 37.6859 228.774 38.637C228.8 38.9184 228.568 39.1479 228.286 39.1479C228.003 39.1479 227.777 38.9182 227.746 38.6373C227.665 37.8889 227.404 37.1685 226.983 36.5384C226.467 35.7659 225.733 35.1639 224.875 34.8084C224.454 34.634 224.012 34.5227 223.563 34.4761ZM227.022 47.0152C224.936 48.7363 223.596 51.3298 223.562 54.2371C223.706 54.2221 223.85 54.2004 223.994 54.1719C224.905 53.9906 225.742 53.5433 226.398 52.8864C227.055 52.2295 227.503 51.3926 227.684 50.4814C227.865 49.5703 227.772 48.6259 227.417 47.7676C227.308 47.5042 227.175 47.2524 227.022 47.0152ZM227.458 53.2432C228.075 52.5082 228.499 51.6275 228.687 50.681C228.908 49.5714 228.795 48.4213 228.362 47.3761C228.221 47.0354 228.048 46.7109 227.846 46.4064C229.32 45.4359 231.079 44.8642 232.971 44.8451C232.792 48.5347 230.594 51.6944 227.458 53.2432ZM218.696 53.2432C215.56 51.6944 213.362 48.5346 213.183 44.8448C218.323 44.9264 222.473 49.0867 222.537 54.2309C222.107 54.1811 221.684 54.0719 221.28 53.9046C220.421 53.5491 219.688 52.947 219.172 52.1746C218.751 51.5445 218.49 50.824 218.408 50.0756C218.377 49.7948 218.151 49.5651 217.869 49.5651C217.586 49.5651 217.355 49.7946 217.38 50.076C217.465 51.027 217.788 51.9446 218.321 52.743C218.437 52.917 218.563 53.084 218.696 53.2432Z" fill="#0F0F0F"/>
</svg>
